<svg width="580" height="400" xmlns="http://www.w3.org/2000/svg">
 <!-- Created with Method Draw - http://github.com/duopixel/Method-Draw/ -->
 <g>
  <title>background</title>
  <rect fill="#fff" id="canvas_background" height="402" width="582" y="-1" x="-1"/>
  <g display="none" overflow="visible" y="0" x="0" height="100%" width="100%" id="canvasGrid">
   <rect fill="url(#gridpattern)" stroke-width="0" y="0" x="0" height="100%" width="100%"/>
  </g>
 </g>
 <g>
  <title>Layer 1</title>
  <path stroke="#fff" transform="rotate(129.21502685546875 494.81549072265625,194.23335266113278) " id="svg_21" d="m633.04024,203.23619c-34.52954,0 -66.99494,13.97095 -91.38324,39.31574c-24.4444,25.3564 -37.88378,59.14173 -37.88378,95.09517l-53.23023,0c0,-104.44005 81.88145,-189.39034 182.50846,-189.39034l0,54.97943l-0.01121,0zm-0.06731,-97.48356c-123.09702,0 -223.21922,104.05744 -223.21922,231.95244l-53.20779,0c0,-158.21368 124.00569,-286.94346 276.43822,-286.94346l0,54.99102l-0.01121,0zm-73.59122,193.51786c0,21.04337 16.50193,38.10995 36.8517,38.10995s36.8517,-17.06658 36.8517,-38.10995c0,-21.02019 -16.50193,-38.08677 -36.8517,-38.08677s-36.8517,17.05499 -36.8517,38.08677z" stroke-width="1.5" fill="#007bff"/>
  <path stroke="#fff" transform="rotate(-42.14990234375 82.81550598144533,197.2333526611328) " id="svg_16" d="m221.040236,206.236193c-34.529538,0 -66.994931,13.970943 -91.38324,39.315742c-24.4444,25.356392 -37.883771,59.141728 -37.883771,95.095167l-53.230232,0c0,-104.440047 81.881447,-189.390339 182.508462,-189.390339l0,54.97943l-0.011218,0zm-0.067309,-97.483561c-123.097016,0 -223.219213,104.057441 -223.219213,231.952441l-53.207796,0c0,-158.213686 124.005688,-286.943465 276.438227,-286.943465l0,54.991024l-0.011218,0zm-73.591217,193.517854c0,21.043371 16.501933,38.109951 36.851699,38.109951s36.851699,-17.06658 36.851699,-38.109951c0,-21.020183 -16.501933,-38.086762 -36.851699,-38.086762s-36.851699,17.054986 -36.851699,38.086762z" stroke-width="1.5" fill="#007bff"/>
  <ellipse stroke="#000000" ry="101.500004" rx="101.999997" id="svg_20" cy="207.937504" cx="288.999997" stroke-width="0" fill="#007bff"/>
  <text stroke="#000000" transform="matrix(8.965241653917879,0,0,6.7914826201474,-1166.631128132465,-1886.369881367491) " xml:space="preserve" text-anchor="start" font-family="'Trebuchet MS', Gadget, sans-serif" font-size="24" id="svg_19" y="317.201341" x="155.041107" stroke-width="0" fill="#fff">R</text>
 </g>
</svg>