<svg width="580" height="400" xmlns="http://www.w3.org/2000/svg">
 <!-- Created with Method Draw - http://github.com/duopixel/Method-Draw/ -->
 <g>
  <title>background</title>
  <rect fill="#fff" id="canvas_background" height="402" width="582" y="-1" x="-1"/>
  <g display="none" overflow="visible" y="0" x="0" height="100%" width="100%" id="canvasGrid">
   <rect fill="url(#gridpattern)" stroke-width="0" y="0" x="0" height="100%" width="100%"/>
  </g>
 </g>
 <g>
  <title>Layer 1</title>
  <ellipse stroke="#fff" ry="199.310217" rx="197.000013" id="svg_1" cy="201.039618" cx="300.000011" stroke-width="1.5" fill="#000"/>
  <path stroke="#000" id="svg_8" d="m271.655207,147.153654l0,0l0,-0.017986l0,0.017986zm0.00775,-0.017986l44.723724,51.916784l-44.731473,51.898798l16.444939,19.092211l61.176412,-71.000001l-61.176412,-71.000001l-16.437189,19.092211zm79.248796,121.612795l111.743437,0l0,-26.970108l-111.743437,0l0,26.970108zm33.595104,-56.206461l78.148333,0l0,-26.970108l-78.148333,0l0,26.970108zm-33.595104,-83.185562l0,26.988094l111.743437,0l0,-26.988094l-111.743437,0z" stroke-width="1.5" fill="#fff"/>
  <text font-weight="bold" transform="matrix(13.827441066422931,0,0,8.095206682139015,-524.2537365724105,-1077.0277581558796) " stroke="#000000" font-style="normal" xml:space="preserve" text-anchor="start" font-family="'Palatino Linotype', 'Book Antiqua', Palatino, serif" font-size="24" id="svg_9" y="165.799813" x="45.769717" stroke-width="0" fill="#fff">#</text>
 </g>
</svg>